HIERARCHY
ROOT Hips
{
 OFFSET 0.000000 0.000000 0.000000
 CHANNELS 6 Xposition Yposition Zposition Yrotation Xrotation Zrotation
 JOINT Chest
 {
  OFFSET 0.000000 10.385163 0.011643
  CHANNELS 3 Yrotation Xrotation Zrotation
  JOINT Chest2
  {
   OFFSET 0.000000 11.579334 -0.021150
   CHANNELS 3 Yrotation Xrotation Zrotation
   JOINT Chest3
   {
    OFFSET 0.000000 10.463212 0.000000
    CHANNELS 3 Yrotation Xrotation Zrotation
    JOINT Chest4
    {
     OFFSET 0.000000 10.463212 0.000000
     CHANNELS 3 Yrotation Xrotation Zrotation
     JOINT Neck
     {
      OFFSET 0.000000 14.544862 0.000000
      CHANNELS 3 Yrotation Xrotation Zrotation
      JOINT Head
      {
       OFFSET 0.000000 9.730630 -0.050295
       CHANNELS 3 Yrotation Xrotation Zrotation
       End Site
       {
        OFFSET 0.000000 18.757589 -0.026270
       }
      }
     }
     JOINT RightCollar
     {
      OFFSET -2.985174 8.102313 0.000000
      CHANNELS 3 Yrotation Xrotation Zrotation
      JOINT RightShoulder
      {
       OFFSET -13.558590 0.000000 0.000000
       CHANNELS 3 Yrotation Xrotation Zrotation
       JOINT RightElbow
       {
        OFFSET -28.208579 0.000000 0.000000
        CHANNELS 3 Yrotation Xrotation Zrotation
        JOINT RightWrist
        {
         OFFSET -23.322907 0.000000 0.010349
         CHANNELS 3 Yrotation Xrotation Zrotation
         End Site
         {
          OFFSET -17.603338 0.000000 0.000000
         }
        }
       }
      }
     }
     JOINT LeftCollar
     {
      OFFSET 2.985174 8.102313 0.000000
      CHANNELS 3 Yrotation Xrotation Zrotation
      JOINT LeftShoulder
      {
       OFFSET 13.558590 0.000000 0.000000
       CHANNELS 3 Yrotation Xrotation Zrotation
       JOINT LeftElbow
       {
        OFFSET 28.208579 0.000000 0.000000
        CHANNELS 3 Yrotation Xrotation Zrotation
        JOINT LeftWrist
        {
         OFFSET 23.322907 0.000000 0.010349
         CHANNELS 3 Yrotation Xrotation Zrotation
         End Site
         {
          OFFSET 17.603338 0.000000 0.000000
         }
        }
       }
      }
     }
    }
   }
  }
 }
 JOINT RightHip
 {
  OFFSET -8.341224 -0.057053 -0.005822
  CHANNELS 3 Yrotation Xrotation Zrotation
  JOINT RightKnee
  {
   OFFSET 0.000000 -44.280013 0.005508
   CHANNELS 3 Yrotation Xrotation Zrotation
   JOINT RightAnkle
   {
    OFFSET 0.000000 -43.261728 0.009315
    CHANNELS 3 Yrotation Xrotation Zrotation
    JOINT RightToe
    {
     OFFSET 0.000000 -8.082955 18.257715
     CHANNELS 3 Yrotation Xrotation Zrotation
     End Site
     {
      OFFSET 0.000000 -1.634678 7.189621
     }
    }
   }
  }
 }
 JOINT LeftHip
 {
  OFFSET 8.341224 -0.057053 -0.005822
  CHANNELS 3 Yrotation Xrotation Zrotation
  JOINT LeftKnee
  {
   OFFSET 0.000000 -44.280013 0.005508
   CHANNELS 3 Yrotation Xrotation Zrotation
   JOINT LeftAnkle
   {
    OFFSET 0.000000 -43.261728 0.009315
    CHANNELS 3 Yrotation Xrotation Zrotation
    JOINT LeftToe
    {
     OFFSET 0.000000 -8.082955 18.257715
     CHANNELS 3 Yrotation Xrotation Zrotation
     End Site
     {
      OFFSET 0.000000 -1.634678 7.189621
     }
    }
   }
  }
 }
}
MOTION
Frames: 5
Frame Time: 0.016667
-112.164264 95.285055 -542.949720 112.251974 -6.385821 -0.146254 1.685759 9.569086 1.576532 0.714047 4.258469 0.662784 0.714393 4.258482 0.662639 0.531265 3.194692 0.491723 -3.298006 7.345578 0.666932 -6.907328 -22.418265 3.030482 -0.420264 -4.116024 3.952657 -5.104235 -7.346625 66.868464 77.545412 -4.986121 41.875815 18.715403 -6.022027 -3.948249 1.882439 -7.191623 -11.570102 24.183973 5.798517 -56.159077 -69.850878 -18.944972 -38.256280 2.317876 -4.159957 -12.169329 -9.687963 2.462529 -4.965808 -8.495742 56.931523 -11.167203 -1.923138 8.117818 13.315204 1.904250 -11.520079 5.192725 -1.579755 -12.085172 -1.228677 0.501138 21.790002 -1.348440 4.225929 -5.153703 -1.224462 -0.000000 0.000000 -0.000000
-109.431732 94.530666 -544.369495 111.761898 -8.283932 0.386732 1.239754 10.811755 1.368712 0.516446 4.808828 0.576515 0.516446 4.808828 0.576515 0.382561 3.607115 0.428060 -3.099553 6.737322 0.585183 -6.517490 -23.563232 2.814322 0.105539 -5.725193 4.115722 -5.595458 -5.769753 67.335067 73.985522 -2.675094 40.380691 16.704662 -5.111501 -2.379999 1.550870 -8.501792 -12.053581 21.760435 3.928814 -56.240256 -67.674797 -19.012240 -36.745895 0.948627 -4.681279 -11.116150 -10.418124 1.166111 -5.757012 -12.675032 60.567513 -16.402335 -1.721313 5.521053 11.609533 3.161772 -7.219308 7.436491 -4.075962 -11.323192 -1.511979 3.856604 27.339581 -1.363588 4.586697 -8.614146 0.049968 0.000000 -0.000000 0.000000
-106.733610 94.008483 -545.760857 110.777738 -8.851121 0.807020 0.962687 11.237284 1.224174 0.395713 4.996838 0.518195 0.395448 4.996757 0.518279 0.291928 3.747821 0.385262 -2.785509 6.494155 0.477151 -5.849281 -24.037827 2.450163 0.625896 -5.996364 4.076979 -5.552378 -4.718951 68.893840 69.263984 0.464278 37.711969 15.004193 -3.842646 -3.638460 1.389201 -5.959425 -11.782477 18.725901 -0.864938 -58.415835 -65.794127 -17.772201 -35.239476 -0.404549 -3.841733 -9.516265 -10.595453 -1.307623 -6.106255 -13.976467 63.333976 -18.843358 -2.778433 2.646749 9.377887 4.041829 -5.152139 9.402252 -2.924214 -10.380660 -2.490084 3.752305 30.476955 -0.827757 5.214338 -11.685461 0.528634 -0.000000 0.000000 -0.000000
-104.072671 93.651414 -547.121455 109.575789 -8.721821 1.149699 0.741749 11.242261 1.132102 0.300292 4.998238 0.482723 0.300114 4.998085 0.482763 0.220841 3.748665 0.359401 -2.401515 6.430260 0.352477 -5.015350 -24.181937 1.998732 1.139517 -5.515040 3.922132 -5.326428 -3.951966 70.959821 64.064289 3.612107 34.079695 13.684675 -2.725908 -6.437856 1.306745 -1.593271 -11.267551 15.632878 -7.276827 -61.127926 -64.062116 -16.041085 -33.843674 -1.613458 -2.380800 -7.694706 -10.559116 -4.384039 -6.105457 -13.064003 65.402552 -19.023339 -4.372039 -0.502504 6.778509 4.498559 -4.517235 11.213081 0.135685 -9.182434 -3.742939 1.852416 32.318511 -0.006174 6.023407 -14.727608 0.500993 -0.000000 0.000000 -0.000000
-101.427010 93.460268 -548.438709 108.606327 -8.638429 1.365097 0.408290 11.213976 1.124758 0.153262 4.984959 0.487511 0.153262 4.984959 0.487511 0.110889 3.738845 0.364149 -2.009880 6.386034 0.227069 -4.162917 -24.285550 1.538883 1.522048 -4.901789 3.818495 -5.960998 -3.132090 72.089856 60.852429 5.160002 31.645406 13.146607 -2.212738 -8.377636 1.257300 1.077081 -11.024233 13.005985 -11.753483 -62.638584 -63.571220 -15.403472 -32.843358 -2.350247 -1.685650 -6.568255 -10.671179 -7.139327 -5.780614 -11.429888 66.370817 -18.109876 -5.783380 -3.397366 4.720381 4.379015 -4.478553 12.321504 2.501514 -7.573301 -4.640205 0.386485 33.379569 0.617234 6.702884 -17.201763 0.443633 0.000000 0.000000 0.000000
